<svg display="none" width="0" height="0" version="1.1" xmlns="http://www.w3.org/2000/svg" xmlns:xlink="http://www.w3.org/1999/xlink">
    <defs>
        <symbol id="minus" width="50" height="50" viewBox="0 0 50 50" fill="none" xmlns="http://www.w3.org/2000/svg">
            <path fill-rule="evenodd" clip-rule="evenodd" d="M25 50C38.8071 50 50 38.8071 50 25C50 11.1929 38.8071 0 25 0C11.1929 0 0 11.1929 0 25C0 38.8071 11.1929 50 25 50ZM15.625 21.875C13.8991 21.875 12.5 23.2741 12.5 25C12.5 26.7259 13.8991 28.125 15.625 28.125H34.375C36.1009 28.125 37.5 26.7259 37.5 25C37.5 23.2741 36.1009 21.875 34.375 21.875H15.625Z" fill="var(--icon-change)" />
        </symbol>

        <symbol id="plus" width="50" height="50" viewBox="0 0 50 50" fill="none" xmlns="http://www.w3.org/2000/svg">
            <path fill-rule="evenodd" clip-rule="evenodd" d="M25 50C38.8071 50 50 38.8071 50 25C50 11.1929 38.8071 0 25 0C11.1929 0 0 11.1929 0 25C0 38.8071 11.1929 50 25 50ZM28.125 15.625C28.125 13.8991 26.7259 12.5 25 12.5C23.2741 12.5 21.875 13.8991 21.875 15.625V21.875H15.625C13.8991 21.875 12.5 23.2741 12.5 25C12.5 26.7259 13.8991 28.125 15.625 28.125H21.875V34.375C21.875 36.1009 23.2741 37.5 25 37.5C26.7259 37.5 28.125 36.1009 28.125 34.375V28.125H34.375C36.1009 28.125 37.5 26.7259 37.5 25C37.5 23.2741 36.1009 21.875 34.375 21.875H28.125V15.625Z" fill="var(--icon-change)" />
        </symbol>

        <symbol id="film" width="70" height="62" viewBox="0 0 70 62" fill="none" xmlns="http://www.w3.org/2000/svg">
            <path fill-rule="evenodd" clip-rule="evenodd" d="M8.75 0C3.91751 0 0 3.9175 0 8.75V52.5C0 57.3325 3.91751 61.25 8.75 61.25H61.25C66.0825 61.25 70 57.3325 70 52.5V8.75C70 3.9175 66.0825 0 61.25 0H8.75ZM21.875 8.75H48.125V26.25H21.875V8.75ZM56.875 43.75V52.5H61.25V43.75H56.875ZM48.125 35H21.875V52.5H48.125V35ZM56.875 35H61.25V26.25H56.875V35ZM61.25 17.5V8.75H56.875V17.5H61.25ZM13.125 8.75V17.5H8.75V8.75H13.125ZM13.125 26.25H8.75V35H13.125V26.25ZM8.75 43.75H13.125V52.5H8.75V43.75Z" fill="var(--icon-film)" />
        </symbol>

        <symbol id="star" width="13" height="12" viewBox="0 0 13 12" fill="none" xmlns="http://www.w3.org/2000/svg">
            <path d="M5.78671 1.19529C6.01122 0.504306 6.98878 0.504305 7.21329 1.19529L8.01547 3.66413C8.11588 3.97315 8.40384 4.18237 8.72876 4.18237H11.3247C12.0512 4.18237 12.3533 5.11208 11.7655 5.53913L9.66537 7.06497C9.40251 7.25595 9.29251 7.59447 9.39292 7.90349L10.1951 10.3723C10.4196 11.0633 9.62875 11.6379 9.04097 11.2109L6.94084 9.68503C6.67797 9.49405 6.32203 9.49405 6.05916 9.68503L3.95903 11.2109C3.37125 11.6379 2.58039 11.0633 2.8049 10.3723L3.60708 7.90349C3.70749 7.59448 3.59749 7.25595 3.33463 7.06497L1.2345 5.53914C0.646715 5.11208 0.948796 4.18237 1.67534 4.18237H4.27124C4.59616 4.18237 4.88412 3.97315 4.98453 3.66414L5.78671 1.19529Z" fill="var(--icon-star)" />
        </symbol>

    </defs>
</svg>